<?xml version="1.0" standalone="no"?>
<!DOCTYPE svg PUBLIC "-//W3C//DTD SVG 20010904//EN"
 "http://www.w3.org/TR/2001/REC-SVG-20010904/DTD/svg10.dtd">
<svg version="1.0" xmlns="http://www.w3.org/2000/svg"
 width="224.000000pt" height="190.000000pt" viewBox="0 0 224.000000 190.000000"
 preserveAspectRatio="xMidYMid meet">

<g transform="translate(0.000000,190.000000) scale(0.100000,-0.100000)"
fill="#000000" stroke="none">
<path d="M1840 1625 c13 -14 26 -25 28 -25 3 0 -5 11 -18 25 -13 14 -26 25
-28 25 -3 0 5 -11 18 -25z"/>
<path d="M1485 1548 l-90 -93 93 90 c85 83 97 95 89 95 -1 0 -43 -42 -92 -92z"/>
<path d="M715 1450 c-38 -38 -67 -71 -64 -72 2 -2 36 30 75 70 39 39 68 72 65
72 -4 0 -38 -31 -76 -70z"/>
<path d="M1822 1480 c0 -19 2 -27 5 -17 2 9 2 25 0 35 -3 9 -5 1 -5 -18z"/>
<path d="M1440 1393 l-65 -68 68 65 c62 60 72 70 64 70 -1 0 -32 -30 -67 -67z"/>
<path d="M1785 1278 l-70 -73 73 70 c67 64 77 75 69 75 -1 0 -34 -33 -72 -72z"/>
<path d="M1640 1243 l-85 -88 88 85 c48 46 87 86 87 87 0 8 -11 -3 -90 -84z"/>
<path d="M1551 1134 c0 -11 3 -14 6 -6 3 7 2 16 -1 19 -3 4 -6 -2 -5 -13z"/>
<path d="M995 950 c-66 -66 -117 -120 -115 -120 3 0 59 54 125 120 66 66 117
120 115 120 -3 0 -59 -54 -125 -120z"/>
<path d="M506 811 c-64 -64 -87 -94 -83 -107 4 -18 5 -18 6 1 0 11 40 59 88
107 48 49 85 88 83 88 -3 0 -45 -40 -94 -89z"/>
<path d="M1170 773 l-125 -128 128 125 c70 69 127 126 127 127 0 8 -14 -6
-130 -124z"/>
<path d="M1044 520 c0 -63 1 -89 3 -57 2 31 2 83 0 115 -2 31 -3 5 -3 -58z"/>
<path d="M1690 515 c-24 -25 -42 -45 -39 -45 3 0 25 20 49 45 24 25 42 45 39
45 -3 0 -25 -20 -49 -45z"/>
<path d="M1665 368 l-60 -63 63 60 c34 33 62 61 62 62 0 8 -10 -1 -65 -59z"/>
<path d="M1030 283 l-85 -88 88 85 c81 79 92 90 84 90 -1 0 -41 -39 -87 -87z"/>
<path d="M1550 336 c0 -2 8 -10 18 -17 15 -13 16 -12 3 4 -13 16 -21 21 -21
13z"/>
</g>
</svg>
